HIERARCHY
ROOT hip
{
  OFFSET 0.0168452 103.724 2.51504
  CHANNELS 6 Xposition Yposition Zposition Zrotation Xrotation Yrotation
  JOINT abdomen
  {
    OFFSET 0 -1.186 -1.50178
    CHANNELS 6 Xposition Yposition Zposition Zrotation Xrotation Yrotation
    JOINT abdomen2
    {
      OFFSET 0 9.964 0.21338
      CHANNELS 6 Xposition Yposition Zposition Zrotation Xrotation Yrotation
      JOINT chest
      {
        OFFSET 0 13.134 -3.25729
        CHANNELS 6 Xposition Yposition Zposition Zrotation Xrotation Yrotation
        JOINT neck
        {
          OFFSET 0 21.686 -1.69049
          CHANNELS 6 Xposition Yposition Zposition Zrotation Xrotation Yrotation
          JOINT head
          {
            OFFSET 0 11.838 -0.12368
            CHANNELS 6 Xposition Yposition Zposition Zrotation Xrotation Yrotation
            End Site
            {
              OFFSET 0 6.717 2.38717
            }
          }
        }
        JOINT lCollar
        {
          OFFSET 1.70688 20.075 5.0056
          CHANNELS 6 Xposition Yposition Zposition Zrotation Xrotation Yrotation
          JOINT lShldr
          {
            OFFSET 13.6458 -0.047012 -4.84902
            CHANNELS 6 Xposition Yposition Zposition Zrotation Xrotation Yrotation
            JOINT lForeArm
            {
              OFFSET 28.3255 -0.975903 2.28883
              CHANNELS 6 Xposition Yposition Zposition Zrotation Xrotation Yrotation
              JOINT lHand
              {
                OFFSET 22.1583 -0.530035 10.8316
                CHANNELS 6 Xposition Yposition Zposition Zrotation Xrotation Yrotation
                JOINT lThumb1
                {
                  OFFSET 0.785995 0.111999 2.58168
                  CHANNELS 6 Xposition Yposition Zposition Zrotation Xrotation Yrotation
                  JOINT lThumb2
                  {
                    OFFSET 0.3601 -0.878005 4.2331
                    CHANNELS 6 Xposition Yposition Zposition Zrotation Xrotation Yrotation
                    End Site
                    {
                      OFFSET 1.81271 -1.21601 2.2227
                    }
                  }
                }
                JOINT lCarpal1
                {
                  OFFSET 0.9571 1.114 1.76948
                  CHANNELS 6 Xposition Yposition Zposition Zrotation Xrotation Yrotation
                  JOINT lIndex1
                  {
                    OFFSET 4.1246 0.487 4.1451
                    CHANNELS 6 Xposition Yposition Zposition Zrotation Xrotation Yrotation
                    JOINT lIndex2
                    {
                      OFFSET 3.40521 -1.45401 2.7682
                      CHANNELS 6 Xposition Yposition Zposition Zrotation Xrotation Yrotation
                      End Site
                      {
                        OFFSET 1.4531 -1.795 1.2713
                      }
                    }
                  }
                  JOINT lMid1
                  {
                    OFFSET 5.6954 0.209991 2.1184
                    CHANNELS 6 Xposition Yposition Zposition Zrotation Xrotation Yrotation
                    JOINT lMid2
                    {
                      OFFSET 3.9766 -1.53999 2.3863
                      CHANNELS 6 Xposition Yposition Zposition Zrotation Xrotation Yrotation
                      End Site
                      {
                        OFFSET 1.4042 -1.926 1.125
                      }
                    }
                  }
                }
                JOINT lCarpal2
                {
                  OFFSET 2.09559 0.65999 -0.38939
                  CHANNELS 6 Xposition Yposition Zposition Zrotation Xrotation Yrotation
                  JOINT lRing1
                  {
                    OFFSET 5.0395 -0.089997 2.49707
                    CHANNELS 6 Xposition Yposition Zposition Zrotation Xrotation Yrotation
                    JOINT lRing2
                    {
                      OFFSET 3.7921 -1.552 1.4806
                      CHANNELS 6 Xposition Yposition Zposition Zrotation Xrotation Yrotation
                      End Site
                      {
                        OFFSET 1.4655 -1.808 0.9609
                      }
                    }
                  }
                  JOINT lPinky1
                  {
                    OFFSET 4.9141 -1.269 0.35915
                    CHANNELS 6 Xposition Yposition Zposition Zrotation Xrotation Yrotation
                    JOINT lPinky2
                    {
                      OFFSET 3.1477 -1.685 0.84623
                      CHANNELS 6 Xposition Yposition Zposition Zrotation Xrotation Yrotation
                      End Site
                      {
                        OFFSET 0.805505 -1.58499 0.79549
                      }
                    }
                  }
                }
              }
            }
          }
        }
        JOINT rCollar
        {
          OFFSET -1.70688 20.075 5.0056
          CHANNELS 6 Xposition Yposition Zposition Zrotation Xrotation Yrotation
          JOINT rShldr
          {
            OFFSET -13.6458 -0.047012 -4.84902
            CHANNELS 6 Xposition Yposition Zposition Zrotation Xrotation Yrotation
            JOINT rForeArm
            {
              OFFSET -28.3255 -0.975903 2.28883
              CHANNELS 6 Xposition Yposition Zposition Zrotation Xrotation Yrotation
              JOINT rHand
              {
                OFFSET -22.1583 -0.530036 10.8316
                CHANNELS 6 Xposition Yposition Zposition Zrotation Xrotation Yrotation
                JOINT rThumb1
                {
                  OFFSET -0.785995 0.111999 2.58168
                  CHANNELS 6 Xposition Yposition Zposition Zrotation Xrotation Yrotation
                  JOINT rThumb2
                  {
                    OFFSET -0.3601 -0.878005 4.2331
                    CHANNELS 6 Xposition Yposition Zposition Zrotation Xrotation Yrotation
                    End Site
                    {
                      OFFSET -1.81271 -1.21601 2.2227
                    }
                  }
                }
                JOINT rCarpal1
                {
                  OFFSET -0.9571 1.114 1.76948
                  CHANNELS 6 Xposition Yposition Zposition Zrotation Xrotation Yrotation
                  JOINT rIndex1
                  {
                    OFFSET -4.1246 0.487 4.1451
                    CHANNELS 6 Xposition Yposition Zposition Zrotation Xrotation Yrotation
                    JOINT rIndex2
                    {
                      OFFSET -3.40521 -1.45401 2.7682
                      CHANNELS 6 Xposition Yposition Zposition Zrotation Xrotation Yrotation
                      End Site
                      {
                        OFFSET -1.4531 -1.795 1.2713
                      }
                    }
                  }
                  JOINT rMid1
                  {
                    OFFSET -5.6954 0.209991 2.1184
                    CHANNELS 6 Xposition Yposition Zposition Zrotation Xrotation Yrotation
                    JOINT rMid2
                    {
                      OFFSET -3.9766 -1.53999 2.3863
                      CHANNELS 6 Xposition Yposition Zposition Zrotation Xrotation Yrotation
                      End Site
                      {
                        OFFSET -1.4042 -1.926 1.125
                      }
                    }
                  }
                }
                JOINT rCarpal2
                {
                  OFFSET -2.09559 0.65999 -0.38939
                  CHANNELS 6 Xposition Yposition Zposition Zrotation Xrotation Yrotation
                  JOINT rRing1
                  {
                    OFFSET -5.0395 -0.089997 2.49707
                    CHANNELS 6 Xposition Yposition Zposition Zrotation Xrotation Yrotation
                    JOINT rRing2
                    {
                      OFFSET -3.7921 -1.552 1.4806
                      CHANNELS 6 Xposition Yposition Zposition Zrotation Xrotation Yrotation
                      End Site
                      {
                        OFFSET -1.4655 -1.808 0.9609
                      }
                    }
                  }
                  JOINT rPinky1
                  {
                    OFFSET -4.9141 -1.269 0.35915
                    CHANNELS 6 Xposition Yposition Zposition Zrotation Xrotation Yrotation
                    JOINT rPinky2
                    {
                      OFFSET -3.1477 -1.685 0.84623
                      CHANNELS 6 Xposition Yposition Zposition Zrotation Xrotation Yrotation
                      End Site
                      {
                        OFFSET -0.805505 -1.58499 0.79549
                      }
                    }
                  }
                }
              }
            }
          }
        }
      }
    }
  }
  JOINT lThigh
  {
    OFFSET 8.367 -8.2066 0.59823
    CHANNELS 6 Xposition Yposition Zposition Zrotation Xrotation Yrotation
    JOINT lShin
    {
      OFFSET 2.19232 -43.463 -0.493181
      CHANNELS 6 Xposition Yposition Zposition Zrotation Xrotation Yrotation
      JOINT lFoot
      {
        OFFSET 0.733257 -45.8593 -2.64513
        CHANNELS 6 Xposition Yposition Zposition Zrotation Xrotation Yrotation
        End Site
        {
          OFFSET 2.6618 -4.26993 12.3931
        }
      }
    }
  }
  JOINT rThigh
  {
    OFFSET -8.367 -8.2066 0.59823
    CHANNELS 6 Xposition Yposition Zposition Zrotation Xrotation Yrotation
    JOINT rShin
    {
      OFFSET -2.19233 -43.463 -0.493108
      CHANNELS 6 Xposition Yposition Zposition Zrotation Xrotation Yrotation
      JOINT rFoot
      {
        OFFSET -0.733256 -45.8593 -2.64514
        CHANNELS 6 Xposition Yposition Zposition Zrotation Xrotation Yrotation
        End Site
        {
          OFFSET -2.6618 -4.26993 12.3931
        }
      }
    }
  }
}
MOTION
Frames:	4
Frame Time:	0.0333333
6.64228 96.9007 133.864 -3.79 -0.95 -0.58 -4.44089e-016 -1.186 -1.50178 -1.37704 11.5893 -3.40155 1.77636e-015 9.964 0.21338 -2.09917 23.2388 -6.72563 3.55271e-015 13.134 -3.25729 -2.09917 23.2388 -6.72562 -3.55271e-015 21.686 -1.69049 3.5701 -9.28044 0.000169991 7.10543e-015 11.838 -0.12368 -11.83 -40.15 -6.73 1.70688 20.075 5.0056 17.1301 -0.000384688 -0.279732 13.6458 -0.047012 -4.84902 -58.2139 -15.9398 -84.5169 28.3255 -0.975903 2.28883 -0.753814 48.4573 -47.9045 22.1583 -0.530035 10.8316 0.629611 -0.322617 -0.626077 0.785995 0.111999 2.58168 -7.95139e-015 3.18055e-015 -0 0.3601 -0.878005 4.2331 -1.59028e-015 1.27222e-014 3.18055e-015 0.9571 1.114 1.76948 -7.95139e-015 3.18055e-015 -0 4.1246 0.487 4.1451 -1.59028e-015 1.27222e-014 3.18055e-015 3.40521 -1.45401 2.7682 -3.18055e-015 3.18055e-015 -7.95139e-015 5.6954 0.209991 2.1184 -1.59028e-015 1.27222e-014 3.18055e-015 3.9766 -1.53999 2.3863 -3.18055e-015 3.18055e-015 -7.95139e-015 2.09559 0.65999 -0.38939 -7.95139e-015 3.18055e-015 -0 5.0395 -0.089997 2.49707 -1.59028e-015 1.27222e-014 3.18055e-015 3.7921 -1.552 1.4806 -3.18055e-015 3.18055e-015 -7.95139e-015 4.9141 -1.269 0.35915 -1.59028e-015 1.27222e-014 3.18055e-015 3.1477 -1.685 0.84623 -3.18055e-015 3.18055e-015 -7.95139e-015 -1.70688 20.075 5.0056 9.74006 -0.000385592 16.4502 -13.6458 -0.047012 -4.84902 58.3215 24.2796 -45.149 -28.3255 -0.975903 2.28883 -5.48556 31.159 35.7802 -22.1583 -0.530036 10.8316 -1.61917 -0.681549 -3.66292 -0.785995 0.111999 2.58168 3.18055e-015 -5.2181e-015 2.60905e-016 -0.3601 -0.878005 4.2331 3.18055e-015 -8.51047e-016 -2.65874e-015 -0.9571 1.114 1.76948 3.18055e-015 -5.2181e-015 2.60905e-016 -4.1246 0.487 4.1451 3.18055e-015 -8.51047e-016 -2.65874e-015 -3.40521 -1.45401 2.7682 -5.89703e-031 -7.81472e-015 -4.32357e-015 -5.6954 0.209991 2.1184 3.18055e-015 -8.51047e-016 -2.65874e-015 -3.9766 -1.53999 2.3863 -5.89703e-031 -7.81472e-015 -4.32357e-015 -2.09559 0.65999 -0.38939 3.18055e-015 -5.2181e-015 2.60905e-016 -5.0395 -0.089997 2.49707 3.18055e-015 -8.51047e-016 -2.65874e-015 -3.7921 -1.552 1.4806 -5.89703e-031 -7.81472e-015 -4.32357e-015 -4.9141 -1.269 0.35915 3.18055e-015 -8.51047e-016 -2.65874e-015 -3.1477 -1.685 0.84623 -5.89703e-031 -7.81472e-015 -4.32357e-015 8.367 -8.2066 0.59823 1.298 -18.8645 2.40553 2.19232 -43.463 -0.493181 -0.792348 41.3818 3.74409 0.733257 -45.8593 -2.64513 5.77672 -26.4279 1.3622 -8.367 -8.2066 0.59823 -6.85879 -28.9985 -5.98371 -2.19233 -43.463 -0.493108 13.7344 55.0051 -15.1385 -0.733256 -45.8593 -2.64514 -5.19568 -9.33767 -1.12515 
6.20329 97.2308 136.049 -3.56 -0.760001 1.13 8.88178e-016 -1.186 -1.50178 -0.94466 11.6504 -3.31496 8.88178e-016 9.964 0.21338 -1.22191 23.3356 -6.64257 -1.77636e-015 13.134 -3.25729 -1.22191 23.3355 -6.64256 -3.55271e-015 21.686 -1.69049 3.90008 -9.68047 0.00017019 -3.55271e-015 11.838 -0.12368 -11.67 -40.19 -6.49 1.70688 20.075 5.0056 18.67 -0.000384655 -0.799715 13.6458 -0.047012 -4.84902 -60.3365 -15.2297 -84.5181 28.3255 -0.975903 2.28883 -0.645496 48.0975 -55.8498 22.1583 -0.530035 10.8316 0.643301 -0.322567 0.00178099 0.785995 0.111999 2.58168 -4.77083e-015 0 -0 0.3601 -0.878005 4.2331 -1.59028e-015 0 -4.77083e-015 0.9571 1.114 1.76948 -4.77083e-015 0 -0 4.1246 0.487 4.1451 -1.59028e-015 0 -4.77083e-015 3.40521 -1.45401 2.7682 0 0 -4.77083e-015 5.6954 0.209991 2.1184 -1.59028e-015 0 -4.77083e-015 3.9766 -1.53999 2.3863 0 0 -4.77083e-015 2.09559 0.65999 -0.38939 -4.77083e-015 0 -0 5.0395 -0.089997 2.49707 -1.59028e-015 0 -4.77083e-015 3.7921 -1.552 1.4806 0 0 -4.77083e-015 4.9141 -1.269 0.35915 -1.59028e-015 0 -4.77083e-015 3.1477 -1.685 0.84623 0 0 -4.77083e-015 -1.70688 20.075 5.0056 11.54 -0.000391633 13.0702 -13.6458 -0.047012 -4.84902 55.3011 27.7942 -44.6197 -28.3255 -0.975903 2.28883 -5.96112 31.5575 37.789 -22.1583 -0.530036 10.8316 -1.5923 -0.668315 -3.55308 -0.785995 0.111999 2.58168 -3.18055e-015 -4.17448e-015 -0 -0.3601 -0.878005 4.2331 -6.03464e-033 -3.47873e-015 -9.93923e-017 -0.9571 1.114 1.76948 -3.18055e-015 -4.17448e-015 -0 -4.1246 0.487 4.1451 -6.03464e-033 -3.47873e-015 -9.93923e-017 -3.40521 -1.45401 2.7682 -3.15525e-031 9.0944e-015 1.98785e-015 -5.6954 0.209991 2.1184 -6.03464e-033 -3.47873e-015 -9.93923e-017 -3.9766 -1.53999 2.3863 -3.15525e-031 9.0944e-015 1.98785e-015 -2.09559 0.65999 -0.38939 -3.18055e-015 -4.17448e-015 -0 -5.0395 -0.089997 2.49707 -6.03464e-033 -3.47873e-015 -9.93923e-017 -3.7921 -1.552 1.4806 -3.15525e-031 9.0944e-015 1.98785e-015 -4.9141 -1.269 0.35915 -6.03464e-033 -3.47873e-015 -9.93923e-017 -3.1477 -1.685 0.84623 -3.15525e-031 9.0944e-015 1.98785e-015 8.367 -8.2066 0.59823 0.981547 -17.091 2.26113 2.19232 -43.463 -0.493181 0.367122 40.6275 1.83365 0.733257 -45.8593 -2.64513 5.89148 -27.6457 1.41577 -8.367 -8.2066 0.59823 -7.05099 -29.5903 -5.67148 -2.19233 -43.463 -0.493108 10.406 45.0291 -12.2326 -0.733256 -45.8593 -2.64514 -5.1836 -11.7996 -0.968103 
5.67126 97.2872 138.345 -3.13 -0.45 2.86 8.88178e-016 -1.186 -1.50178 -0.519748 11.7128 -3.15354 0 9.964 0.21338 -0.376176 23.4362 -6.40399 1.77636e-015 13.134 -3.25729 -0.376177 23.4362 -6.40399 3.55271e-015 21.686 -1.69049 4.35007 -9.91048 0.000170308 7.10543e-015 11.838 -0.12368 -11.45 -40.24 -6.14999 1.70688 20.075 5.0056 18.85 -0.000384414 -2.17973 13.6458 -0.047012 -4.84902 -63.5255 -15.2302 -84.517 28.3255 -0.975903 2.28883 -0.506101 49.396 -63.2973 22.1583 -0.530035 10.8316 0.645548 -0.322376 0.258069 0.785995 0.111999 2.58168 -1.59028e-015 -3.18055e-015 -1.59028e-015 0.3601 -0.878005 4.2331 8.82781e-032 -3.18055e-015 1.59028e-015 0.9571 1.114 1.76948 -1.59028e-015 -3.18055e-015 -1.59028e-015 4.1246 0.487 4.1451 8.82781e-032 -3.18055e-015 1.59028e-015 3.40521 -1.45401 2.7682 8.82781e-032 -3.18055e-015 1.59028e-015 5.6954 0.209991 2.1184 8.82781e-032 -3.18055e-015 1.59028e-015 3.9766 -1.53999 2.3863 8.82781e-032 -3.18055e-015 1.59028e-015 2.09559 0.65999 -0.38939 -1.59028e-015 -3.18055e-015 -1.59028e-015 5.0395 -0.089997 2.49707 8.82781e-032 -3.18055e-015 1.59028e-015 3.7921 -1.552 1.4806 8.82781e-032 -3.18055e-015 1.59028e-015 4.9141 -1.269 0.35915 8.82781e-032 -3.18055e-015 1.59028e-015 3.1477 -1.685 0.84623 8.82781e-032 -3.18055e-015 1.59028e-015 -1.70688 20.075 5.0056 13.91 -0.000396395 9.62024 -13.6458 -0.047012 -4.84902 50.9248 30.9085 -42.5199 -28.3255 -0.975903 2.28883 -6.41079 32.3331 39.6299 -22.1583 -0.530036 10.8316 -1.56154 -0.664184 -3.43959 -0.785995 0.111999 2.58168 3.18055e-015 9.93923e-017 1.78906e-015 -0.3601 -0.878005 4.2331 -1.64487e-031 -5.26779e-015 -1.78906e-015 -0.9571 1.114 1.76948 3.18055e-015 9.93923e-017 1.78906e-015 -4.1246 0.487 4.1451 -1.64487e-031 -5.26779e-015 -1.78906e-015 -3.40521 -1.45401 2.7682 -3.18055e-015 2.08724e-015 1.19271e-015 -5.6954 0.209991 2.1184 -1.64487e-031 -5.26779e-015 -1.78906e-015 -3.9766 -1.53999 2.3863 -3.18055e-015 2.08724e-015 1.19271e-015 -2.09559 0.65999 -0.38939 3.18055e-015 9.93923e-017 1.78906e-015 -5.0395 -0.089997 2.49707 -1.64487e-031 -5.26779e-015 -1.78906e-015 -3.7921 -1.552 1.4806 -3.18055e-015 2.08724e-015 1.19271e-015 -4.9141 -1.269 0.35915 -1.64487e-031 -5.26779e-015 -1.78906e-015 -3.1477 -1.685 0.84623 -3.18055e-015 2.08724e-015 1.19271e-015 8.367 -8.2066 0.59823 0.522868 -15.7377 2.13975 2.19232 -43.463 -0.493181 1.69493 40.4654 -0.150406 0.733257 -45.8593 -2.64513 6.04395 -29.1607 1.501 -8.367 -8.2066 0.59823 -7.45283 -29.562 -5.4184 -2.19233 -43.463 -0.493108 7.23603 34.136 -10.2901 -0.733256 -45.8593 -2.64514 -5.19353 -14.2095 -0.81168 
4.976 97.0422 140.744 -2.42 -0.119999 4.77 -1.77636e-015 -1.186 -1.50178 -0.205155 11.7777 -3.16144 0 9.964 0.21338 0.279673 23.5483 -6.49195 -1.77636e-015 13.134 -3.25729 0.279671 23.5482 -6.49194 3.55271e-015 21.686 -1.69049 4.82005 -10.0405 0.000170376 -3.55271e-015 11.838 -0.12368 -11.2118 -40.3 -5.77999 1.70688 20.075 5.0056 17.73 -0.000383878 -3.72973 13.6458 -0.047012 -4.84902 -71.3463 -16.1 -84.5159 28.3255 -0.975903 2.28883 4.47476 51.5451 -70.1878 22.1583 -0.530035 10.8316 0.64793 -0.313578 0.679615 0.785995 0.111999 2.58168 0 0 -0 0.3601 -0.878005 4.2331 0 0 -0 0.9571 1.114 1.76948 0 0 -0 4.1246 0.487 4.1451 0 0 -0 3.40521 -1.45401 2.7682 1.59028e-015 3.18055e-015 -0 5.6954 0.209991 2.1184 0 0 -0 3.9766 -1.53999 2.3863 1.59028e-015 3.18055e-015 -0 2.09559 0.65999 -0.38939 0 0 -0 5.0395 -0.089997 2.49707 0 0 -0 3.7921 -1.552 1.4806 1.59028e-015 3.18055e-015 -0 4.9141 -1.269 0.35915 0 0 -0 3.1477 -1.685 0.84623 1.59028e-015 3.18055e-015 -0 -1.70688 20.075 5.0056 14 -0.000395519 10.3402 -13.6458 -0.047012 -4.84902 50.802 28.9722 -41.3926 -28.3255 -0.975903 2.28883 -6.03631 32.4409 38.885 -22.1583 -0.530036 10.8316 -1.57047 -0.66862 -3.4778 -0.785995 0.111999 2.58168 -3.18055e-015 9.93923e-016 9.93923e-016 -0.3601 -0.878005 4.2331 -6.36111e-015 -1.88845e-015 -9.93923e-016 -0.9571 1.114 1.76948 -3.18055e-015 9.93923e-016 9.93923e-016 -4.1246 0.487 4.1451 -6.36111e-015 -1.88845e-015 -9.93923e-016 -3.40521 -1.45401 2.7682 -3.18055e-015 4.77083e-015 1.78906e-015 -5.6954 0.209991 2.1184 -6.36111e-015 -1.88845e-015 -9.93923e-016 -3.9766 -1.53999 2.3863 -3.18055e-015 4.77083e-015 1.78906e-015 -2.09559 0.65999 -0.38939 -3.18055e-015 9.93923e-016 9.93923e-016 -5.0395 -0.089997 2.49707 -6.36111e-015 -1.88845e-015 -9.93923e-016 -3.7921 -1.552 1.4806 -3.18055e-015 4.77083e-015 1.78906e-015 -4.9141 -1.269 0.35915 -6.36111e-015 -1.88845e-015 -9.93923e-016 -3.1477 -1.685 0.84623 -3.18055e-015 4.77083e-015 1.78906e-015 8.367 -8.2066 0.59823 -0.0523804 -14.8632 2.02273 2.19232 -43.463 -0.493181 3.16772 41.2241 -2.29921 0.733257 -45.8593 -2.64513 6.21936 -31.0325 1.63291 -8.367 -8.2066 0.59823 -8.11391 -28.9107 -5.24324 -2.19233 -43.463 -0.493108 4.6701 22.9442 -10.7723 -0.733256 -45.8593 -2.64514 -5.20901 -16.684 -0.668011 
